HIERARCHY
ROOT Hips
{
	OFFSET 0.000000 0.000000 0.000000
	CHANNELS 6 Xposition Yposition Zposition Xrotation Yrotation Zrotation
	JOINT LeftUpLeg_virtual
	{
		OFFSET 0.000000 0.000000 0.000000
		CHANNELS 3 Xrotation Yrotation Zrotation
		JOINT LeftUpLeg
		{
			OFFSET 15.427100 -6.655098 0.678600
			CHANNELS 3 Xrotation Yrotation Zrotation
			JOINT LeftLeg
			{
				OFFSET 4.081073 -39.591068 13.024000
				CHANNELS 3 Xrotation Yrotation Zrotation
				JOINT LeftFoot
				{
					OFFSET -4.081074 -37.707932 -15.979700
					CHANNELS 3 Xrotation Yrotation Zrotation
					JOINT LeftToeBase
					{
						OFFSET 5.346399 -15.068900 20.645000
						CHANNELS 3 Xrotation Yrotation Zrotation
						JOINT LeftToe_End
						{
							OFFSET 2.754700 0.931300 11.300900
							CHANNELS 3 Xrotation Yrotation Zrotation
							End Site
							{
								OFFSET 0 0 0
							}
						}
					}
				}
			}
		}
	}
	JOINT RightUpLeg_virtual
	{
		OFFSET 0.000000 0.000000 0.000000
		CHANNELS 3 Xrotation Yrotation Zrotation
		JOINT RightUpLeg
		{
			OFFSET -15.569500 -6.655098 0.678600
			CHANNELS 3 Xrotation Yrotation Zrotation
			JOINT RightLeg
			{
				OFFSET -4.081825 -39.591045 13.023800
				CHANNELS 3 Xrotation Yrotation Zrotation
				JOINT RightFoot
				{
					OFFSET 4.081824 -37.707954 -15.979600
					CHANNELS 3 Xrotation Yrotation Zrotation
					JOINT RightToeBase
					{
						OFFSET -5.346400 -15.068900 20.645000
						CHANNELS 3 Xrotation Yrotation Zrotation
						JOINT RightToe_End
						{
							OFFSET -2.754700 0.931300 11.300900
							CHANNELS 3 Xrotation Yrotation Zrotation
							End Site
							{
								OFFSET 0 0 0
							}
						}
					}
				}
			}
		}
	}
	JOINT Spine_virtual
	{
		OFFSET 0.000000 0.000000 0.000000
		CHANNELS 3 Xrotation Yrotation Zrotation
		JOINT Spine
		{
			OFFSET -0.279200 12.230698 -2.892100
			CHANNELS 3 Xrotation Yrotation Zrotation
			JOINT Spine1
			{
				OFFSET -0.232667 10.192268 -1.242267
				CHANNELS 3 Xrotation Yrotation Zrotation
				JOINT Spine1_split
				{
					OFFSET -0.232667 10.192268 -1.242267
					CHANNELS 3 Xrotation Yrotation Zrotation
					JOINT Spine2
					{
						OFFSET -0.232667 10.192268 -1.242267
						CHANNELS 3 Xrotation Yrotation Zrotation
						JOINT Neck_virtual
						{
							OFFSET 0.000000 0.000000 0.000000
							CHANNELS 3 Xrotation Yrotation Zrotation
							JOINT Neck
							{
								OFFSET -0.418800 17.814194 8.416900
								CHANNELS 3 Xrotation Yrotation Zrotation
								JOINT Head
								{
									OFFSET 0.000000 7.031097 3.806800
									CHANNELS 3 Xrotation Yrotation Zrotation
									JOINT HeadTop_End
									{
										OFFSET 0.000000 24.646606 12.978600
										CHANNELS 3 Xrotation Yrotation Zrotation
										End Site
										{
											OFFSET 0 0 0
										}
									}
								}
							}
						}
						JOINT LeftShoulder_virtual
						{
							OFFSET 0.000000 0.000000 0.000000
							CHANNELS 3 Xrotation Yrotation Zrotation
							JOINT LeftShoulder
							{
								OFFSET 8.476499 7.247704 -3.868750
								CHANNELS 3 Xrotation Yrotation Zrotation
								JOINT LeftShoulder_split
								{
									OFFSET 8.476499 7.247704 -3.868750
									CHANNELS 3 Xrotation Yrotation Zrotation
									JOINT LeftArm
									{
										OFFSET 9.308998 -2.777710 0.208600
										CHANNELS 3 Xrotation Yrotation Zrotation
										JOINT LeftForeArm
										{
											OFFSET 29.972298 0.000000 0.000000
											CHANNELS 3 Xrotation Yrotation Zrotation
											JOINT LeftHand
											{
												OFFSET 26.026505 0.000000 0.000000
												CHANNELS 3 Xrotation Yrotation Zrotation
												End Site
												{
													OFFSET 0 0 0
												}
											}
										}
									}
								}
							}
						}
						JOINT RightShoulder_virtual
						{
							OFFSET 0.000000 0.000000 0.000000
							CHANNELS 3 Xrotation Yrotation Zrotation
							JOINT RightShoulder
							{
								OFFSET -7.570500 7.247704 -3.868750
								CHANNELS 3 Xrotation Yrotation Zrotation
								JOINT RightShoulder_split
								{
									OFFSET -7.570500 7.247704 -3.868750
									CHANNELS 3 Xrotation Yrotation Zrotation
									JOINT RightArm
									{
										OFFSET -9.308998 -2.777710 0.208500
										CHANNELS 3 Xrotation Yrotation Zrotation
										JOINT RightForeArm
										{
											OFFSET -29.972300 0.000000 0.000000
											CHANNELS 3 Xrotation Yrotation Zrotation
											JOINT RightHand
											{
												OFFSET -26.026505 0.000000 0.000000
												CHANNELS 3 Xrotation Yrotation Zrotation
												End Site
												{
													OFFSET 0 0 0
												}
											}
										}
									}
								}
							}
						}
					}
				}
			}
		}
	}
}
MOTION
Frames: 6
Frame Time: 0.03333333
0.057497 81.025558 -0.153187 0.000000 0.000000 0.000000 -3.406653 -16.342278 -2.072480 -33.026912 18.336512 13.289234 45.498889 -0.564129 10.470565 -14.769972 2.818082 -9.058695 -0.332618 -0.240554 -1.271361 0.000000 0.000000 0.000000 -3.987156 -15.510921 -1.858579 -26.530676 -22.707944 -13.490642 45.320501 -2.945673 -12.319765 -15.319274 -3.791987 14.739755 -2.444031 0.748120 -0.102331 0.000000 0.000000 0.000000 -2.726539 -17.829338 -1.929946 4.129998 2.773611 2.304331 2.861108 2.027503 -0.081790 1.697971 -0.260561 0.036133 0.000000 0.000000 0.000000 2.842175 1.809493 -0.055336 0.985003 -0.183960 4.646709 0.213831 9.459291 1.522012 0.000000 0.000000 0.000000 2.645893 1.973440 -0.211450 0.006171 -4.091614 17.413473 -1.656866 -0.153455 -0.443424 -66.822507 -43.148306 -62.486580 -0.895548 -34.351692 0.780318 0.000000 0.000000 0.000000 3.054939 1.877335 -0.109209 -0.334533 -3.319966 -5.274572 0.695673 0.657874 0.582296 -104.200417 58.861464 95.722301 -1.547948 29.669266 0.414292 0.000000 0.000000 0.000000 
0.030705 80.976486 -0.167332 0.000000 0.000000 0.000000 -3.359651 -16.391921 -2.057931 -33.105128 18.340684 13.206290 45.422148 -0.541845 10.500542 -14.677341 2.782706 -9.092110 -0.374956 -0.214318 -1.302575 0.000000 0.000000 0.000000 -3.990571 -15.453305 -1.844508 -26.469210 -22.727473 -13.527409 45.588958 -3.003423 -12.254834 -15.544413 -3.775265 14.782280 -1.912090 0.735310 -0.170317 0.000000 0.000000 0.000000 -2.754442 -17.695217 -2.020507 4.125473 2.739212 2.255476 2.872412 2.019006 -0.112062 1.574978 0.062115 -0.100261 0.000000 0.000000 0.000000 2.765890 1.789247 -0.082309 0.851575 -0.310509 4.678388 0.410200 9.497298 1.512002 0.000000 0.000000 0.000000 2.659285 1.954990 -0.220731 -0.049085 -3.941788 17.335467 -1.658040 -0.139948 -0.335272 -66.778288 -43.366182 -62.606211 -0.842836 -34.657872 0.846544 0.000000 0.000000 0.000000 3.119596 1.879105 -0.128320 -0.312614 -3.225701 -5.367623 0.695342 0.611453 0.557127 -104.211434 59.369644 95.899100 -1.416135 29.399299 0.378477 0.000000 0.000000 0.000000 
0.014423 80.934914 -0.176891 0.000000 0.000000 0.000000 -3.300468 -16.492182 -2.006828 -33.222061 18.370938 13.086242 45.367704 -0.529245 10.614827 -14.418878 2.665189 -9.254717 -0.341216 -0.173910 -1.391707 0.000000 0.000000 0.000000 -3.977308 -15.558063 -1.800763 -26.433100 -22.736204 -13.551672 45.703039 -3.114385 -12.178973 -15.536927 -3.813730 14.862889 -1.766138 0.678442 -0.243640 0.000000 0.000000 0.000000 -2.822893 -17.529226 -2.103193 4.044547 2.665572 2.154761 2.820686 2.050411 -0.152620 1.323524 0.072042 -0.213359 0.000000 0.000000 0.000000 2.721033 1.815292 -0.130610 0.753463 -0.525272 4.877456 0.834454 9.332079 1.684756 0.000000 0.000000 0.000000 2.660093 1.979775 -0.252621 -0.134716 -3.637983 17.162177 -1.571235 -0.122481 -0.328183 -66.612014 -43.830871 -62.662437 -0.877379 -35.134268 0.798908 0.000000 0.000000 0.000000 3.150330 1.914797 -0.160286 -0.240390 -2.999873 -5.511248 0.508160 0.546325 0.355781 -104.018604 60.025492 96.220071 -1.245693 29.191778 0.302432 0.000000 0.000000 0.000000 
0.008404 80.930977 -0.171234 0.000000 0.000000 0.000000 -3.229961 -16.684376 -1.934734 -33.351605 18.450788 13.016052 45.288150 -0.503997 10.776093 -14.107134 2.511610 -9.455403 -0.239303 -0.121200 -1.510284 0.000000 0.000000 0.000000 -3.886880 -15.841008 -1.731026 -26.393094 -22.705632 -13.512938 45.608274 -3.237049 -12.124341 -15.300771 -3.873221 14.909663 -2.024554 0.586829 -0.256113 0.000000 0.000000 0.000000 -2.900026 -17.464030 -2.147709 3.894243 2.556380 2.040396 2.714334 2.095721 -0.198101 1.015367 -0.204800 -0.158738 0.000000 0.000000 0.000000 2.698368 1.869592 -0.186487 0.693452 -0.776070 5.191071 1.342495 9.076495 1.981390 0.000000 0.000000 0.000000 2.632954 2.029409 -0.303688 -0.237097 -3.229815 16.879667 -1.372419 -0.142459 -0.409290 -66.377390 -44.555677 -62.764289 -0.953749 -35.557446 0.642937 0.000000 0.000000 0.000000 3.139614 1.964007 -0.198487 -0.126970 -2.690296 -5.708730 0.312060 0.450029 0.151696 -103.641420 60.662523 96.605656 -1.066879 29.144759 0.203118 0.000000 0.000000 0.000000 
0.001414 80.954353 -0.153675 0.000000 0.000000 0.000000 -3.187266 -16.981720 -1.870706 -33.494793 18.565731 13.011897 45.205508 -0.445845 10.949937 -13.787177 2.388453 -9.599578 -0.098808 -0.059702 -1.617093 0.000000 0.000000 0.000000 -3.715919 -16.236553 -1.661698 -26.359809 -22.598304 -13.393701 45.417479 -3.386338 -12.095726 -14.974947 -3.934865 14.740930 -2.149808 0.475212 -0.152701 0.000000 0.000000 0.000000 -2.875370 -17.544596 -2.131900 3.704367 2.438946 1.936368 2.578384 2.131447 -0.239541 0.908559 -0.549413 -0.033865 0.000000 0.000000 0.000000 2.678666 1.915445 -0.234919 0.653353 -1.009128 5.493568 1.746141 8.841145 2.313448 0.000000 0.000000 0.000000 2.570089 2.072224 -0.358460 -0.352238 -2.773720 16.547498 -1.280036 -0.162119 -0.568147 -66.162342 -45.491252 -62.949551 -0.997782 -35.858111 0.463794 0.000000 0.000000 0.000000 3.076695 2.001460 -0.232680 0.005340 -2.341236 -5.946896 0.127827 0.318155 -0.044352 -103.230065 61.138191 96.948832 -0.923528 29.264543 0.155344 0.000000 0.000000 0.000000 
0.018648 80.999504 -0.168636 0.000000 0.000000 0.000000 -3.187629 -17.362940 -1.829389 -33.603291 18.700897 13.052293 45.183026 -0.340965 11.104395 -13.527909 2.333273 -9.614182 0.025190 -0.002881 -1.696744 0.000000 0.000000 0.000000 -3.557442 -16.656226 -1.618679 -26.471050 -22.441114 -13.263156 45.311711 -3.573112 -12.091458 -14.631274 -3.983274 14.384074 -1.956415 0.365258 0.047545 0.000000 0.000000 0.000000 -2.763247 -17.800819 -2.068154 3.558814 2.331851 1.846167 2.430558 2.138877 -0.278846 1.060543 -0.872970 0.131894 0.000000 0.000000 0.000000 2.650588 1.934848 -0.259783 0.609226 -1.194798 5.707395 1.939546 8.721809 2.584703 0.000000 0.000000 0.000000 2.474810 2.081163 -0.406226 -0.470886 -2.302347 16.204033 -1.169058 -0.020719 -0.740173 -66.081001 -46.603187 -63.270747 -0.915768 -36.062928 0.340475 0.000000 0.000000 0.000000 2.965019 2.009181 -0.254432 0.124602 -2.028483 -6.255808 0.035576 0.275777 -0.205239 -102.757621 61.311179 96.998501 -0.827290 29.246713 0.182346 0.000000 0.000000 0.000000 
